<svg version="1.1" id="Layer_1" xmlns="http://www.w3.org/2000/svg" xmlns:xlink="http://www.w3.org/1999/xlink" x="0px" y="0px"
	 width="100%" viewBox="0 0 1200 867" enable-background="new 0 0 1200 867" xml:space="preserve">
<path fill="#FFFFFF" opacity="1.000000" stroke="none" 
	d="
M1200.627930,104.952057 
	C1201.000000,357.779572 1200.985596,610.559143 1201.121826,863.338684 
	C1201.124146,867.579529 1200.033691,868.099060 1196.163330,868.098022 
	C799.414368,867.993286 402.665375,867.989990 5.916441,868.127869 
	C1.463776,868.129456 0.873325,866.932922 0.899327,862.917847 
	C1.087082,833.925354 1.000000,804.931030 1.000000,775.468628 
	C1.736372,774.804871 2.343156,775.058044 2.673542,775.697571 
	C8.924388,787.797180 20.196684,790.069702 32.228584,790.717102 
	C53.065189,791.838318 73.410309,788.421326 93.593773,783.767273 
	C139.017883,773.293091 182.831711,757.793396 226.195221,740.949036 
	C270.160767,723.870850 313.304565,704.879944 356.132812,685.126709 
	C398.059326,665.789185 439.266602,645.005737 480.484436,624.238770 
	C487.708984,620.598755 494.909302,616.815247 502.965363,612.467529 
	C492.713196,607.242981 487.310791,599.567017 486.472595,588.166138 
	C480.333893,591.230286 474.511505,593.931946 468.884583,596.994873 
	C445.462891,609.744202 421.545258,621.520935 397.744293,633.529724 
	C332.707733,666.344055 266.712189,697.051575 198.977295,723.920166 
	C171.084015,734.984680 142.855728,745.142578 113.807220,752.792358 
	C97.689705,757.036865 81.444016,760.768616 64.574715,760.287537 
	C61.718735,760.206116 58.937103,759.874695 56.189312,759.113708 
	C46.142582,756.331421 42.656250,750.311279 45.491035,740.216309 
	C48.647850,728.974487 55.852005,720.104736 63.285786,711.572937 
	C79.836212,692.577881 98.190674,675.418762 117.336617,659.038574 
	C144.454376,635.838196 172.698532,614.091797 201.395340,592.923828 
	C237.876511,566.013855 275.133820,540.204224 312.941437,515.191467 
	C318.868469,511.270233 320.034943,511.692474 322.357727,518.574646 
	C334.428009,554.336914 352.472321,586.743347 376.584839,615.806702 
	C379.416473,619.219666 381.985748,619.844116 386.060364,618.277405 
	C412.415161,608.143982 437.375641,595.121460 462.219879,581.852722 
	C467.356018,579.109619 467.274963,578.446289 462.818756,574.684509 
	C429.766174,546.782837 405.777954,512.471741 390.538269,472.040466 
	C382.202271,449.924896 377.331635,427.079803 375.589783,403.455383 
	C372.459229,360.996063 379.779297,320.576080 397.583801,281.934387 
	C411.145264,252.501495 429.548218,226.519196 453.301453,204.570755 
	C491.850159,168.951126 537.208984,147.022934 589.311951,140.059250 
	C649.458069,132.020584 705.416565,144.750519 756.442505,177.290924 
	C804.624634,208.017792 837.705566,251.140335 856.656250,305.017487 
	C860.690613,316.487274 863.897217,328.234100 865.912781,340.273804 
	C866.675903,344.831848 866.908508,344.873047 870.809570,342.262451 
	C876.486755,338.463287 882.133606,334.617310 887.766357,330.752167 
	C891.205872,328.391998 891.587280,325.974518 890.210388,322.284210 
	C878.286316,290.324829 861.942322,260.904999 840.343933,234.439453 
	C837.604065,231.082184 834.581848,227.973297 831.976990,224.500549 
	C828.391602,219.720444 828.446960,218.209656 833.735901,215.817215 
	C845.129395,210.663376 856.122437,204.696518 867.473938,199.476700 
	C886.844849,190.569305 906.110901,181.436798 925.591248,172.762405 
	C956.953796,158.796982 988.518250,145.329666 1020.677490,133.294937 
	C1043.157104,124.882584 1065.841064,117.095047 1089.020264,110.777718 
	C1103.045410,106.955246 1117.252441,104.227509 1131.706909,102.871414 
	C1138.242920,102.258224 1144.721680,103.117470 1150.827148,105.639259 
	C1157.182739,108.264359 1159.773804,113.346130 1158.555542,120.105736 
	C1157.313843,126.994377 1153.895264,132.914413 1150.091309,138.606567 
	C1138.894409,155.361496 1124.584961,169.388077 1110.000854,183.048462 
	C1093.593384,198.416733 1076.311035,212.809402 1058.760620,226.884155 
	C1038.346313,243.255478 1017.538757,259.099548 996.391541,274.496948 
	C959.071655,301.669769 921.103394,327.914673 882.631042,353.429413 
	C867.356262,363.559601 851.876038,373.375519 836.585815,383.481842 
	C832.220459,386.367249 832.135986,386.571503 836.237000,389.964172 
	C842.737488,395.341858 845.513794,402.381958 845.836609,410.482300 
	C847.857788,411.331970 848.860474,409.862457 849.998535,409.113403 
	C906.942139,371.632141 963.063904,332.979004 1017.317139,291.663635 
	C1048.077515,268.238739 1078.208618,244.029587 1107.116455,218.352997 
	C1121.304077,205.751175 1135.495483,193.078735 1148.422241,179.160004 
	C1163.831177,162.568558 1179.314331,145.987930 1190.762207,126.189476 
	C1194.038086,120.524033 1196.682251,114.635864 1198.540649,108.378258 
	C1198.914185,107.120422 1198.973877,105.711807 1200.627930,104.952057 
z"/>
<path fill="#FFFFFF" opacity="1.000000" stroke="none" 
	d="
M1.385029,763.039368 
	C1.000000,510.553741 1.014328,258.107483 0.878073,5.661298 
	C0.875784,1.420365 1.966388,0.900975 5.836771,0.901997 
	C402.585632,1.006733 799.334473,1.010083 1196.083374,0.872217 
	C1200.535400,0.870670 1201.126831,2.066189 1201.100708,6.081874 
	C1200.912842,35.074478 1201.000000,64.068863 1201.000000,93.531342 
	C1200.267090,94.178688 1199.648560,93.933372 1199.317383,93.299500 
	C1192.909546,81.035515 1181.443726,78.925575 1169.241333,78.296814 
	C1148.739380,77.240379 1128.742065,80.613228 1108.862549,85.118355 
	C1068.786499,94.200394 1030.078003,107.629868 991.657471,121.961845 
	C952.614319,136.526062 914.348267,152.978683 876.277405,169.883148 
	C856.944214,178.467621 837.864624,187.614014 818.700684,196.571625 
	C817.044678,197.345703 815.188782,197.964935 814.015442,199.384033 
	C811.473267,202.458710 809.350281,201.413147 806.890381,199.229431 
	C762.181885,159.541183 710.221985,135.086761 651.123596,126.426544 
	C589.940613,117.460876 531.370300,126.529823 475.613708,153.581436 
	C440.819763,170.462540 410.637634,193.452179 384.625366,221.880417 
	C368.038635,240.007721 354.044098,260.047272 342.446838,281.805145 
	C325.890289,312.867310 315.057831,345.738373 309.965790,380.517426 
	C308.447235,390.889069 307.553619,401.312805 307.189117,411.826019 
	C306.383881,435.050903 307.944122,458.044891 312.415070,480.834473 
	C313.147552,484.568207 311.609894,486.779877 308.727997,488.755219 
	C288.251221,502.790802 267.729431,516.764465 247.546677,531.221558 
	C210.291565,557.907776 173.475555,585.172180 137.986618,614.199402 
	C120.449631,628.543335 103.093498,643.094604 86.393242,658.397705 
	C60.704548,681.937317 35.722713,706.155518 16.067400,735.234680 
	C10.815323,743.004883 6.361828,751.166565 3.507629,760.141846 
	C3.156175,761.247009 2.861270,762.403259 1.385029,763.039368 
z"/>
<path fill="#0235A1" opacity="1.000000" stroke="none" 
	d="
M1.000000,763.460632 
	C15.765360,722.591797 46.580929,694.522217 76.559952,666.123962 
	C127.078560,618.269104 182.498230,576.383606 239.007797,535.946716 
	C261.881317,519.578979 285.124298,503.725891 308.289429,487.769684 
	C311.124908,485.816620 311.903595,484.129364 311.228882,480.525330 
	C283.819946,334.121460 363.123932,191.246506 503.297943,140.954437 
	C615.081116,100.848518 717.449036,122.282333 808.272278,198.744125 
	C809.277710,199.590530 810.262939,200.460922 811.708740,201.709824 
	C812.157654,199.262375 813.241882,197.878265 815.292175,196.904633 
	C887.988037,162.383026 961.548767,129.919281 1037.886841,104.176208 
	C1070.675049,93.119232 1103.844971,83.274658 1138.249756,78.493484 
	C1153.292480,76.403023 1168.442627,75.165901 1183.399902,79.185143 
	C1191.293579,81.306267 1197.769165,85.387077 1200.646484,93.925827 
	C1201.000000,97.361290 1201.000000,100.722572 1201.000000,104.541931 
	C1193.203003,131.409805 1175.598389,151.448288 1157.498291,170.984543 
	C1119.773560,211.702484 1077.012085,246.814194 1033.328125,280.808990 
	C973.370178,327.468140 910.958618,370.681580 847.356079,412.195770 
	C846.675903,412.639709 845.970703,413.045166 844.623474,413.867828 
	C845.325317,401.542206 840.614868,392.598206 829.042480,386.935120 
	C831.380737,385.381378 833.200134,384.139435 835.051453,382.947021 
	C898.751709,341.920227 961.586914,299.629456 1022.035278,253.902740 
	C1059.388428,225.646667 1096.114380,196.606613 1128.685547,162.744232 
	C1137.585815,153.490967 1146.011841,143.817703 1152.436523,132.596848 
	C1154.589111,128.837082 1156.466553,124.971046 1157.297485,120.645447 
	C1158.730835,113.185600 1156.112915,108.414116 1148.849243,105.974380 
	C1142.078979,103.700333 1135.088013,103.739883 1128.081177,104.469482 
	C1099.562744,107.439018 1072.492432,116.197266 1045.630249,125.551064 
	C984.797302,146.734009 926.135010,173.098541 868.000366,200.684372 
	C855.120056,206.796310 842.301331,213.038116 828.997009,219.440170 
	C839.127014,230.683243 848.319153,242.063629 856.580078,254.175858 
	C871.280579,275.730072 882.839905,298.861145 891.856873,323.328339 
	C893.292664,327.224182 892.514343,329.158203 889.149902,331.320129 
	C881.462952,336.259644 874.051147,341.627289 866.155701,347.077728 
	C864.115295,337.697357 862.720032,328.653656 860.015320,319.930603 
	C830.613525,225.105438 767.930298,164.738327 670.779663,144.312378 
	C540.143066,116.846016 411.755829,199.297684 382.769012,329.589294 
	C361.121796,426.890533 390.518768,509.268433 465.402191,575.208374 
	C469.881927,579.153076 470.013367,579.026550 464.969330,581.707336 
	C438.541840,595.753174 412.137054,609.832397 384.023834,620.375549 
	C380.926331,621.537292 379.356384,621.043030 377.350861,618.656189 
	C352.115387,588.622131 333.138275,555.105652 320.895325,517.809570 
	C319.139252,512.460144 319.155518,512.459595 314.326447,515.683533 
	C251.012314,557.952881 188.602097,601.477417 129.877274,650.031128 
	C104.568352,670.956543 79.751221,692.473572 59.225800,718.367004 
	C54.050510,724.895813 49.305725,731.749084 46.753872,739.829102 
	C43.553814,749.961365 46.895901,755.954895 57.365566,758.145020 
	C69.030426,760.585205 80.625702,758.776733 92.063431,756.478638 
	C135.154694,747.820740 175.976288,732.107422 216.472687,715.587219 
	C306.316711,678.936157 393.046631,635.707214 478.859375,590.572388 
	C481.623901,589.118347 484.432190,587.747559 487.720703,586.084839 
	C487.525665,599.224548 493.900635,607.463745 506.183258,612.242737 
	C488.926575,621.114746 472.605652,629.637024 456.170319,637.932617 
	C383.867310,674.426941 310.618378,708.877136 235.283325,738.703796 
	C188.430405,757.253784 141.070404,774.387573 91.751694,785.393616 
	C71.887947,789.826416 51.873867,793.231934 31.376156,792.019836 
	C25.190565,791.654114 19.150509,790.536865 13.466990,787.971130 
	C7.752925,785.391663 3.470779,781.433533 1.343940,775.099976 
	C1.000000,771.307068 1.000000,767.614197 1.000000,763.460632 
z"/>
<path fill="#0134A0" opacity="1.000000" stroke="none" 
	d="
M727.399170,525.847412 
	C725.079163,525.826538 724.511414,527.774170 723.465088,528.840881 
	C709.814209,542.757629 696.528870,557.050903 682.474792,570.544495 
	C677.600098,575.224792 671.009521,578.000122 665.945129,582.927490 
	C649.945007,598.494446 633.528076,613.632996 617.279907,628.945129 
	C616.570007,629.614136 615.934082,630.361572 614.767700,631.598389 
	C622.055176,632.498901 628.797607,632.189514 635.493652,631.849243 
	C740.176697,626.528687 831.340515,553.633545 859.460999,452.878021 
	C862.102234,443.414215 864.228699,433.839539 865.760437,424.144592 
	C866.110474,421.928680 867.045227,420.646606 868.836426,419.449188 
	C880.597595,411.586609 892.327148,403.674988 903.974060,395.644470 
	C906.652954,393.797363 907.618164,393.567902 907.989563,397.388184 
	C921.824341,539.692749 829.514404,674.930054 690.526123,713.733948 
	C597.907776,739.591919 511.654602,723.807495 432.498077,669.236877 
	C431.817230,668.767456 431.169922,668.248352 430.520813,667.734985 
	C430.416199,667.652222 430.384552,667.477112 430.258301,667.221436 
	C443.511932,661.076538 456.882355,655.174561 469.987488,648.732910 
	C490.421997,638.688477 510.720245,628.362732 530.961487,617.933533 
	C534.092712,616.320129 536.614685,616.293091 539.802490,617.448608 
	C561.519409,625.320801 583.929443,629.884583 607.000610,631.325317 
	C610.006775,631.513062 611.941650,630.674438 613.932556,628.577637 
	C632.172791,609.366638 652.040527,591.445496 668.307739,570.697388 
	C681.336487,554.079773 697.016479,540.354248 710.832764,524.288330 
	C715.257263,517.593445 721.109131,512.718689 727.091064,507.513733 
	C731.802185,508.683777 735.135315,510.992554 735.830688,516.226318 
	C733.724548,520.201538 730.308289,522.555298 727.399170,525.847412 
z"/>
<path fill="#0335A1" opacity="1.000000" stroke="none" 
	d="
M673.251282,442.356995 
	C672.042725,440.413208 673.254883,439.038574 673.841248,437.600433 
	C684.963318,410.318878 713.775208,393.928925 743.087463,398.175537 
	C772.305969,402.408569 795.299133,426.420563 798.182129,455.711548 
	C801.988831,494.387146 772.562561,527.083252 733.728271,527.280151 
	C731.756348,527.290161 729.782410,526.910645 727.445312,526.393616 
	C729.672119,523.098511 732.751221,520.590210 735.441650,517.240112 
	C736.497742,515.634888 737.035522,514.094910 735.751160,512.962341 
	C733.270020,510.774323 731.640808,507.494263 727.706238,506.825745 
	C721.686218,511.575165 717.177490,517.451294 711.191040,522.242432 
	C706.967529,522.738586 704.096924,520.266785 701.087830,518.519653 
	C694.083130,514.452698 687.707031,509.558807 683.279541,502.028290 
	C683.581055,501.232422 683.756348,501.073242 684.222473,500.711365 
	C699.982117,491.350525 715.399963,482.107025 731.090027,472.666351 
	C734.206604,467.961914 729.481995,465.842529 728.181519,462.707825 
	C727.292419,460.564819 725.339539,460.961792 723.418884,462.448792 
	C722.998535,462.805359 722.831177,462.948059 722.393860,463.277954 
	C721.739624,463.664551 721.345093,463.840515 720.643066,464.102875 
	C719.341064,464.562866 718.489746,465.146179 717.511902,466.134277 
	C717.079590,466.484131 716.892700,466.611145 716.400513,466.896759 
	C703.904358,473.000610 692.799316,480.813690 681.013123,487.455505 
	C679.582214,488.261841 678.312805,489.379211 676.248779,489.573181 
	C673.681030,489.253265 673.706421,487.195953 673.161133,485.794189 
	C669.931458,477.492188 668.461548,468.871307 668.967773,459.487793 
	C670.485840,456.995056 672.887878,456.891327 675.329956,456.022766 
	C678.221680,455.071594 680.906555,454.700348 683.665039,453.370483 
	C684.470093,453.094574 684.950623,452.987762 685.435425,452.895477 
	C696.174011,450.851440 694.399841,449.902130 691.447998,440.712799 
	C690.133118,436.619781 686.708496,440.082916 683.917297,440.031281 
	C682.457825,440.301971 681.294434,440.296265 679.916870,440.931366 
	C678.514832,441.516571 677.463562,442.036591 676.045898,442.620209 
	C674.970764,442.888092 674.255798,442.848846 673.251282,442.356995 
z"/>
<path fill="#0839A3" opacity="1.000000" stroke="none" 
	d="
M512.820801,493.401855 
	C543.420776,484.112244 573.792603,475.083496 604.147583,465.998627 
	C606.814026,465.200623 610.113953,465.378601 611.051758,461.472260 
	C611.242737,460.676727 613.634644,460.325165 615.055420,459.922028 
	C634.207581,454.488007 653.367371,449.081116 672.807739,443.422791 
	C673.499023,442.373596 674.261230,442.556122 675.297363,442.500183 
	C676.549988,442.177948 677.298401,441.540894 678.575928,441.200012 
	C680.348694,440.728790 681.630066,439.940399 683.462708,439.580048 
	C686.174133,439.509186 688.821411,436.935181 690.757202,439.633026 
	C692.687439,442.323120 693.466797,445.662506 693.578796,449.008148 
	C693.628784,450.499695 692.401672,451.403137 691.046936,451.726471 
	C689.105408,452.189850 687.301941,453.086487 684.942383,453.457336 
	C682.229248,454.468323 679.736084,454.908508 677.005249,455.825439 
	C674.277710,456.298584 672.085571,457.434357 669.331482,457.404846 
	C654.003296,461.467072 639.197693,466.715271 623.946960,469.649170 
	C604.702942,473.351288 585.553650,477.329376 566.531677,482.002716 
	C548.978088,486.315369 531.392151,490.496368 513.436279,494.780212 
	C512.695862,494.512085 512.531311,494.123535 512.820801,493.401855 
z"/>
<path fill="#0739A3" opacity="1.000000" stroke="none" 
	d="
M570.996094,562.425537 
	C596.569336,545.315186 622.118164,528.598267 647.554565,511.712006 
	C650.709717,509.617401 655.487854,508.795135 655.558899,503.417175 
	C655.567688,502.757263 657.320496,502.076660 658.310303,501.480804 
	C663.992676,498.059845 669.688721,494.661560 675.665039,491.054962 
	C684.322510,484.518463 693.733948,479.848969 702.603027,474.309326 
	C707.103210,471.498535 711.495056,468.434326 716.745850,466.200684 
	C717.025024,465.974457 717.013000,466.017365 716.991089,466.013489 
	C717.650635,465.245209 718.604675,464.834564 719.597595,463.978760 
	C720.379150,463.498962 721.009338,463.546753 721.813477,463.162994 
	C722.049072,462.975494 722.026611,463.034149 721.995300,463.036621 
	C724.459229,460.589294 726.742065,461.058685 728.515747,463.794495 
	C729.927490,465.971954 731.759766,468.018311 731.762939,471.228241 
	C727.656982,476.513397 721.596619,478.404694 716.447876,481.622070 
	C706.161743,488.049744 695.691284,494.189056 684.969971,500.592041 
	C684.326721,501.123077 683.933777,501.386292 683.236084,501.826660 
	C682.968994,502.060669 682.967102,502.000916 682.995728,501.996094 
	C682.058655,500.713226 681.275940,501.931030 680.576416,502.281860 
	C643.682861,520.784058 608.350220,542.066711 572.410095,562.962646 
	C571.613708,563.283020 571.230164,563.200012 570.996094,562.425537 
z"/>
<path fill="#C8D2EA" opacity="1.000000" stroke="none" 
	d="
M716.747559,465.654175 
	C713.125244,469.846405 708.038208,471.900269 703.464111,474.721832 
	C694.600708,480.189270 685.584106,485.408295 676.290527,490.792297 
	C675.918213,490.558777 675.875122,490.264862 675.856689,489.752777 
	C689.418396,481.466583 702.944275,473.400208 716.747559,465.654175 
z"/>
<path fill="#BAC7E5" opacity="1.000000" stroke="none" 
	d="
M710.879395,522.777161 
	C716.016846,516.954102 721.164307,511.541595 726.622498,505.996704 
	C727.315369,506.253693 727.480713,506.720032 727.204346,507.577911 
	C721.860107,513.179688 716.740723,518.466858 711.311157,523.877808 
	C710.963806,523.730286 710.926575,523.458984 710.879395,522.777161 
z"/>
<path fill="#476BB9" opacity="1.000000" stroke="none" 
	d="
M512.668213,493.143555 
	C513.046082,493.526917 513.038635,493.897858 513.041626,494.546936 
	C508.646210,495.919037 504.240295,497.012939 499.418457,498.112366 
	C498.884186,497.938873 498.765839,497.759949 498.840790,497.323792 
	C503.450348,495.754700 507.866638,494.442932 512.668213,493.143555 
z"/>
<path fill="#4E71BC" opacity="1.000000" stroke="none" 
	d="
M570.714844,562.147217 
	C571.128052,562.430115 571.325073,562.678040 571.860962,562.945129 
	C568.492188,565.893799 564.420471,567.874878 559.806091,569.097839 
	C563.328979,566.802124 566.851929,564.506348 570.714844,562.147217 
z"/>
<path fill="#CCD6EB" opacity="1.000000" stroke="none" 
	d="
M736.032959,516.935791 
	C733.906616,520.465393 730.840942,523.118896 727.444946,525.940063 
	C727.081238,526.074768 727.156189,526.059021 727.169434,526.094299 
	C728.770630,522.515808 732.084839,520.313599 734.702332,517.149048 
	C735.242310,516.895264 735.484375,516.790527 736.032959,516.935791 
z"/>
<path fill="#C8D2EA" opacity="1.000000" stroke="none" 
	d="
M668.978210,457.691650 
	C671.101257,456.569336 673.196045,455.892120 675.634277,455.179504 
	C676.329346,455.471802 676.488770,455.870911 676.203125,456.613129 
	C673.889343,457.512390 671.799438,458.150787 669.362244,458.907837 
	C668.993286,458.729919 668.971558,458.433350 668.978210,457.691650 
z"/>
<path fill="#849CD0" opacity="1.000000" stroke="none" 
	d="
M498.673706,497.074585 
	C499.015228,497.241302 498.996338,497.416107 498.989990,497.854370 
	C497.997192,499.216827 496.797913,499.340515 494.875153,498.643921 
	C496.278717,498.006561 497.296051,497.544617 498.673706,497.074585 
z"/>
<path fill="#4E71BC" opacity="1.000000" stroke="none" 
	d="
M558.850342,570.957275 
	C558.417786,571.010986 558.162231,570.927185 557.906738,570.843384 
	C558.043579,570.612671 558.134644,570.240906 558.326172,570.178711 
	C558.819275,570.018616 559.218018,570.143066 558.850342,570.957275 
z"/>
<path fill="#849CD0" opacity="1.000000" stroke="none" 
	d="
M491.728088,499.673706 
	C492.101410,499.354675 492.712189,499.125275 493.295929,499.180756 
	C493.761993,499.225037 493.783417,499.654083 493.356262,499.761261 
	C492.906647,499.874054 492.422791,499.850342 491.728088,499.673706 
z"/>
<path fill="#D9E0F0" opacity="1.000000" stroke="none" 
	d="
M676.153992,442.361145 
	C675.250244,442.894165 674.537231,443.069397 673.457153,443.211334 
	C673.047119,443.012451 673.004150,442.846863 672.949707,442.424866 
	C673.678833,441.945587 674.419434,441.722687 675.536194,441.408569 
	C676.056458,441.545990 676.200623,441.774689 676.153992,442.361145 
z"/>
<path fill="#E1E7F3" opacity="1.000000" stroke="none" 
	d="
M736.645996,517.020508 
	C736.117676,517.145447 735.895752,517.105164 735.337036,517.032410 
	C735.663391,511.488190 731.077393,510.127319 727.350098,507.843445 
	C726.964722,507.441925 726.949951,506.991333 726.934204,506.202484 
	C727.636292,504.858337 728.643860,504.679047 729.472473,505.436432 
	C732.162720,507.895325 734.774048,510.442810 737.361389,513.010986 
	C738.755981,514.395264 738.191467,515.689880 736.645996,517.020508 
z"/>
<path fill="#FCFCFE" opacity="1.000000" stroke="none" 
	d="
M705.408203,435.000183 
	C711.358459,420.432068 723.039307,412.544098 738.156616,410.211151 
	C762.046753,406.524292 784.565002,422.573547 788.939758,445.623901 
	C793.549438,469.912079 779.146606,492.521881 755.240845,498.404572 
	C752.354797,499.114807 749.363953,499.399323 746.365601,499.890320 
	C745.997192,498.091522 747.472168,497.902557 748.210632,497.302399 
	C764.078491,484.406586 767.746460,463.422577 756.981140,446.853790 
	C746.264343,430.359619 725.459778,425.165924 707.288696,434.449646 
	C706.845825,434.675903 706.410461,434.916931 705.408203,435.000183 
z"/>
<path fill="#CCD6EB" opacity="1.000000" stroke="none" 
	d="
M683.847290,500.749695 
	C699.450134,491.056000 714.940125,481.717987 730.719604,472.199097 
	C731.391602,472.095581 731.720215,472.270844 732.082947,472.828278 
	C716.328369,482.629761 700.477966,492.161041 684.289124,501.755981 
	C683.878662,501.581604 683.806519,501.343506 683.847290,500.749695 
z"/>
<path fill="#D9E0F0" opacity="1.000000" stroke="none" 
	d="
M683.859497,453.490234 
	C684.798462,452.838470 685.541565,452.480682 686.314575,452.207214 
	C692.987244,449.846344 693.924927,447.494446 690.677979,441.097076 
	C688.711853,437.223236 686.108215,440.720886 683.433960,440.631287 
	C682.925293,440.482300 682.803589,440.240234 682.862610,439.634155 
	C693.728210,436.005829 691.261108,436.484253 693.928528,444.929504 
	C695.925171,451.251068 695.765930,451.304657 689.162048,453.143646 
	C687.723450,453.544250 686.276489,453.914825 684.431580,454.397400 
	C683.912354,454.271484 683.794922,454.047363 683.859497,453.490234 
z"/>
<path fill="#E4E9F4" opacity="1.000000" stroke="none" 
	d="
M732.523315,472.991180 
	C731.878052,472.897675 731.577209,472.696869 731.142700,472.257111 
	C731.133606,468.218018 728.305237,465.792480 726.604797,462.883453 
	C725.536133,461.055267 723.997437,462.626068 722.330627,463.069641 
	C725.309692,458.522675 727.057312,458.448669 729.689514,462.746796 
	C730.886841,464.702026 731.983398,466.719635 733.201538,468.661377 
	C734.162231,470.192810 734.758606,471.614838 732.523315,472.991180 
z"/>
<path fill="#AFBFE1" opacity="1.000000" stroke="none" 
	d="
M683.664124,453.153198 
	C684.046753,453.380005 684.051941,453.602783 684.043457,454.160583 
	C681.590820,455.281067 679.151794,456.066498 676.346069,456.862946 
	C675.988708,456.489441 675.998169,456.104950 675.992737,455.432251 
	C678.414124,454.479156 680.850464,453.814178 683.664124,453.153198 
z"/>
<path fill="#BECAE6" opacity="1.000000" stroke="none" 
	d="
M682.689697,439.238342 
	C683.054199,439.512421 683.065063,439.754669 683.061401,440.360657 
	C681.901489,441.108185 680.756042,441.491974 679.302429,441.877869 
	C678.651794,441.541931 678.512756,441.134430 678.785889,440.385193 
	C680.108643,439.810760 681.222412,439.508667 682.689697,439.238342 
z"/>
<path fill="#C8D2EA" opacity="1.000000" stroke="none" 
	d="
M720.272827,464.255524 
	C719.241150,465.144989 718.395447,465.665619 717.259460,466.097900 
	C716.362305,463.856232 718.662720,464.337463 719.696533,463.274231 
	C720.173218,463.415680 720.316040,463.651154 720.272827,464.255524 
z"/>
<path fill="#C5D1E9" opacity="1.000000" stroke="none" 
	d="
M678.704102,440.079926 
	C678.998352,440.505554 679.001770,440.898254 678.999756,441.585449 
	C678.194153,442.145020 677.393982,442.410095 676.278564,442.697083 
	C675.948181,442.485718 675.933044,442.252502 675.915161,441.668274 
	C676.745972,440.893860 677.579590,440.470428 678.704102,440.079926 
z"/>
<path fill="#E4E9F4" opacity="1.000000" stroke="none" 
	d="
M720.396667,464.475861 
	C720.084839,464.383362 720.082886,464.142395 720.055664,463.540771 
	C720.512146,462.910461 720.993835,462.640808 721.762329,462.673340 
	C721.601562,463.426147 721.153992,463.876770 720.396667,464.475861 
z"/>
<path fill="#FFFFFF" opacity="1.000000" stroke="none" 
	d="
M683.598450,500.591675 
	C683.937622,500.631470 683.915039,500.868958 683.921631,501.463074 
	C683.798767,501.907562 683.646790,501.995392 683.231934,502.071960 
	C682.526917,501.524994 682.613220,501.100586 683.598450,500.591675 
z"/>
<path fill="#FCFCFE" opacity="1.000000" stroke="none" 
	d="
M705.157043,435.152039 
	C704.972839,435.419464 704.684082,435.586487 704.395325,435.753510 
	C704.382996,435.514130 704.370667,435.274719 704.601624,434.942322 
	C704.844910,434.849304 705.052490,435.051605 705.157043,435.152039 
z"/>
</svg>